# xmcd
#
# Track frame offsets:
# 150
# 10330
# 19611
# 30914
# 40497
# 51479
# 63104
# 70265
# 84220
# 91994
# 103664
# 117434
# 128822
# 139790
#
# Disc length: 1973 seconds
#
#
# Revision: 0
# Processed by: cddbd v1.5.2PL0 Copyright (c) Steve Scherf et al.
# Submitted via: FreeRIP 2.90 
#
DISCID=b307b30e
DTITLE=Les Paul and Mary Ford - The guitar heroes CD 5
DYEAR=2008
DGENRE=Blues
TTITLE0=Blues stay away from me
TTITLE1=Bye bye blues
TTITLE2=Deep in the blues
TTITLE3=How high the moon
TTITLE4=Don't cry baby
TTITLE5=Frankie and Johnny
TTITLE6=Jazz me blues
TTITLE7=It's a lonesome old town
TTITLE8=Mammy's boogie
TTITLE9=St. Louis blues
TTITLE10=Wabash blues
TTITLE11=Walkin'and whistlin' blues
TTITLE12=My baby's coming home
TTITLE13=Lady of Spain
EXTD=
EXTT0=
EXTT1=
EXTT2=
EXTT3=
EXTT4=
EXTT5=
EXTT6=
EXTT7=
EXTT8=
EXTT9=
EXTT10=
EXTT11=
EXTT12=
EXTT13=
PLAYORDER=
